<svg xmlns="http://www.w3.org/2000/svg" viewBox="0 0 1072 1072" width="1072" height="1072">
  <path d="M241.02,929.68C241.03,929.03 242.94,926.41 245.27,923.86C247.60,921.30 251.97,916.15 255.00,912.41C258.02,908.67 263.44,902.21 267.04,898.05C270.63,893.90 274.30,889.38 275.19,888.00C276.08,886.62 280.11,881.64 284.15,876.91C288.19,872.19 296.68,861.92 303.00,854.09C309.32,846.27 318.27,835.28 322.87,829.68C327.47,824.08 333.77,816.41 336.87,812.64C339.97,808.87 345.44,802.34 349.03,798.14C352.62,793.94 356.67,789.11 358.03,787.41C359.39,785.71 365.90,777.71 372.50,769.62C379.10,761.54 385.47,753.58 386.66,751.94C387.85,750.30 389.72,748.18 390.80,747.23C391.89,746.28 394.86,742.88 397.41,739.69C399.96,736.49 402.48,733.34 403.01,732.69C407.16,727.62 416.29,716.26 420.00,711.55C422.48,708.41 425.85,704.36 427.50,702.55C429.15,700.75 433.20,695.99 436.50,691.98C439.80,687.97 443.18,683.96 444.00,683.06C444.82,682.17 447.52,678.83 450.00,675.64C452.48,672.45 455.62,668.40 457.00,666.64C461.61,660.73 477.37,641.61 487.48,629.66C492.99,623.15 498.40,616.59 499.50,615.10C501.75,612.03 505.14,607.86 519.50,590.45C525.00,583.78 532.35,574.85 535.83,570.60C539.31,566.36 546.29,557.85 551.35,551.69C556.40,545.54 562.67,537.80 565.29,534.50C567.91,531.20 572.10,526.02 574.61,523.00C577.12,519.98 583.07,512.77 587.84,507.00C592.60,501.23 596.87,496.34 597.33,496.14C597.79,495.94 598.96,494.47 599.93,492.88C600.90,491.28 604.22,486.95 607.31,483.24C610.40,479.53 618.86,469.30 626.11,460.50C638.61,445.31 641.86,441.38 651.70,429.55C654.01,426.77 657.72,422.48 659.94,420.00C662.16,417.52 664.76,414.38 665.70,413.00C667.40,410.55 689.14,383.89 695.07,377.00C696.72,375.07 700.42,370.52 703.29,366.89C706.16,363.25 714.15,353.58 721.06,345.39C727.96,337.20 738.46,324.43 744.40,317.00C750.33,309.57 758.94,299.00 763.52,293.50C776.30,278.18 799.86,249.40 812.08,234.20C814.60,231.06 817.75,227.94 819.08,227.26C821.82,225.87 831.82,225.60 833.82,226.87C835.19,227.73 832.13,232.61 824.00,242.51C813.12,255.77 803.73,267.10 792.94,280.00C786.27,287.98 778.30,297.65 775.22,301.50C772.14,305.35 765.32,313.63 760.06,319.89C754.80,326.16 745.55,337.46 739.50,344.99C733.45,352.53 725.35,362.62 721.50,367.41C713.53,377.34 691.37,404.50 686.35,410.50C683.16,414.32 676.60,422.33 665.34,436.16C662.50,439.65 656.42,447.05 651.84,452.61C647.25,458.17 638.77,468.51 633.00,475.59C627.23,482.67 618.45,493.25 613.50,499.09C608.55,504.93 599.70,515.73 593.83,523.10C587.96,530.47 577.24,543.70 570.01,552.50C562.78,561.30 554.32,571.65 551.20,575.50C548.09,579.35 544.57,583.62 543.37,585.00C542.18,586.38 535.50,594.48 528.54,603.00C521.57,611.52 511.06,624.31 505.18,631.41C499.31,638.51 490.45,649.35 485.50,655.50C480.55,661.66 472.20,671.82 466.94,678.10C461.68,684.37 454.86,692.65 451.79,696.50C441.15,709.85 432.42,720.55 423.98,730.59C419.32,736.13 409.88,747.57 403.00,756.01C396.12,764.44 387.57,774.81 384.00,779.05C380.43,783.29 371.65,793.86 364.50,802.54C357.35,811.22 347.89,822.64 343.47,827.91C339.06,833.19 330.06,844.25 323.47,852.50C316.89,860.75 311.03,867.95 310.45,868.50C309.87,869.05 307.66,871.75 305.53,874.50C303.41,877.25 301.17,879.95 300.56,880.50C299.95,881.05 295.19,886.72 289.98,893.10C264.07,924.82 259.67,929.97 258.15,930.41C254.57,931.44 241.00,930.87 241.02,929.68ZM520.75,930.20L516.00,929.89L516.00,919.65C516.00,913.01 516.42,908.98 517.20,908.20C517.86,907.54 520.60,907.00 523.29,907.00C529.72,907.00 546.61,903.52 552.54,900.98C559.48,898.01 562.80,895.31 565.13,890.74C567.35,886.40 567.33,881.06 565.09,870.73C564.07,866.03 549.69,837.34 543.37,827.40C541.59,824.59 535.88,815.14 530.70,806.40C525.51,797.65 511.75,774.83 500.12,755.67L478.97,720.85L481.24,718.06C482.48,716.53 490.25,707.26 498.50,697.46C513.70,679.41 515.51,677.22 536.00,652.15C542.33,644.41 547.95,638.08 548.50,638.07C549.05,638.07 552.16,642.44 555.42,647.79C558.67,653.13 562.77,659.75 564.52,662.50C571.14,672.91 588.71,701.24 600.49,720.50C612.47,740.09 623.24,757.49 638.27,781.50C642.40,788.10 650.84,801.67 657.03,811.64C682.75,853.16 703.68,876.51 727.51,890.28C744.98,900.37 753.87,903.55 773.73,906.81L784.50,908.58L785.20,918.54C785.59,924.02 785.73,929.03 785.51,929.68C785.21,930.59 754.57,930.83 655.31,930.68C583.91,930.58 523.36,930.36 520.75,930.20ZM71.81,719.20C70.52,718.95 70.23,716.94 70.11,707.52C70.02,700.60 70.37,695.89 71.00,695.50C71.57,695.15 77.94,694.42 85.16,693.88C99.93,692.77 118.13,688.56 126.97,684.21C129.99,682.72 134.99,679.02 138.07,676.00C142.93,671.24 144.04,669.41 146.32,662.36C150.80,648.50 151.78,639.61 152.46,606.50C153.62,550.64 154.43,249.24 153.48,230.50C152.94,220.03 149.82,202.94 147.37,197.05C144.14,189.28 135.54,181.53 125.39,177.23C117.01,173.68 101.65,170.11 89.71,168.94C83.55,168.33 77.15,167.52 75.50,167.13L72.50,166.43L72.22,155.83C71.97,146.71 72.17,145.15 73.60,144.60C74.52,144.25 89.72,144.05 107.38,144.17C125.05,144.28 142.43,144.38 146.00,144.40C149.57,144.41 202.67,144.28 264.00,144.10C388.48,143.74 400.88,144.15 441.00,149.95C488.77,156.85 531.29,174.65 556.82,198.42C572.51,213.04 586.50,233.75 592.33,251.00C593.73,255.12 596.06,263.68 597.52,270.00C599.83,280.03 600.16,283.58 600.10,297.76C600.01,319.33 597.41,335.18 590.93,353.55C585.50,368.96 578.22,380.91 563.66,398.33C557.78,405.37 536.34,423.85 529.36,427.90C526.14,429.77 521.70,432.50 519.50,433.98C506.37,442.79 471.46,457.22 452.75,461.56C447.65,462.75 445.00,463.84 445.00,464.76C445.00,465.53 447.43,470.28 450.39,475.33C453.36,480.37 457.29,487.08 459.14,490.23C472.07,512.29 479.91,525.45 483.72,531.50C486.14,535.35 490.61,542.67 493.63,547.77C499.09,556.96 499.12,557.06 497.32,559.41C495.73,561.48 475.77,585.49 456.16,608.92C452.67,613.09 445.53,621.79 440.30,628.25C435.07,634.71 430.50,639.99 430.14,639.99C428.98,639.97 410.45,609.82 380.05,558.50C361.87,527.82 347.31,505.48 341.24,498.96C334.57,491.80 326.90,487.13 315.00,482.98C309.13,480.94 306.12,480.67 283.90,480.23L259.29,479.75L258.75,484.62C258.46,487.31 258.35,523.25 258.52,564.50C258.81,636.77 258.90,639.88 260.98,650.00C262.99,659.81 266.61,668.83 271.01,675.02C273.50,678.51 282.79,684.73 288.79,686.92C298.99,690.65 320.70,694.53 333.50,694.90C337.35,695.01 341.03,695.64 341.67,696.30C342.50,697.15 342.68,700.68 342.28,708.25L341.71,719.00L335.11,719.12C319.33,719.39 73.21,719.47 71.81,719.20ZM901.48,680.01C892.96,678.76 884.87,676.13 876.02,671.72C859.76,663.63 844.57,645.42 838.30,626.50C835.91,619.29 835.64,616.97 835.58,603.00C835.47,581.47 838.38,571.35 849.25,555.33C860.47,538.79 876.82,527.48 896.94,522.35C915.58,517.60 932.84,518.29 952.09,524.58C968.21,529.84 987.67,546.19 994.27,560.00C1013.64,600.54 1001.86,644.11 965.00,668.29C949.33,678.57 923.77,683.29 901.48,680.01ZM712.00,672.81C712.00,668.50 711.70,668.68 721.37,667.19C729.55,665.94 733.56,662.84 734.40,657.13C734.70,655.13 735.23,626.54 735.58,593.60L736.22,533.70L723.86,534.27C709.40,534.94 701.79,536.52 699.09,539.42C695.98,542.76 690.06,553.88 688.86,558.63C687.77,562.96 687.72,563.00 683.40,563.00L679.03,563.00L679.59,556.75C679.90,553.31 680.57,547.20 681.08,543.18C681.58,539.15 682.00,532.71 682.00,528.86C682.00,517.55 684.70,515.44 692.36,520.75L696.33,523.50L750.97,523.37L805.61,523.24L811.27,520.04C820.34,514.93 820.64,515.31 821.41,532.78C821.76,540.88 822.32,550.75 822.64,554.73C823.23,561.94 823.22,561.96 820.44,563.02C818.91,563.60 817.01,563.95 816.22,563.79C815.37,563.62 813.47,559.49 811.61,553.78C806.23,537.25 801.38,534.23 779.76,533.93L767.53,533.77L766.82,537.13C766.44,538.98 765.98,566.90 765.81,599.17C765.50,657.49 765.51,657.86 767.60,660.67C770.73,664.88 775.12,667.02 782.18,667.80L788.50,668.50L788.81,672.81L789.12,677.12L750.56,676.90L712.00,676.69L712.00,672.81ZM939.77,666.42C948.74,662.05 956.31,653.77 961.51,642.65C967.29,630.27 968.46,623.32 968.45,601.50C968.44,585.78 968.15,582.42 966.12,575.00C961.34,557.55 951.69,542.42 941.54,536.47C930.37,529.93 915.98,528.13 904.65,531.87C889.65,536.82 877.33,551.29 872.48,569.67C866.72,591.47 869.25,622.89 878.17,640.47C883.49,650.96 887.18,655.27 898.20,663.84C899.13,664.56 902.95,666.27 906.70,667.63C912.71,669.81 914.69,670.04 923.77,669.65C932.43,669.28 934.94,668.78 939.77,666.42ZM370.50,445.61C395.34,441.84 419.50,433.37 432.45,423.89C434.62,422.30 436.77,421.00 437.23,421.00C438.56,421.00 451.05,410.30 456.31,404.66C466.01,394.26 477.59,374.52 481.92,361.00C487.51,343.57 489.27,318.06 486.57,293.50C483.73,267.65 477.07,247.29 466.50,232.11C453.05,212.80 438.26,200.07 418.88,191.12C385.24,175.58 334.75,170.31 290.00,177.67C273.91,180.32 266.17,185.45 262.43,195.94C259.39,204.49 258.26,273.91 258.87,415.23L259.00,444.96L261.25,445.53C272.08,448.24 352.74,448.30 370.50,445.61Z" fill="#000000" fill-rule="evenodd"/>
</svg>