<svg xmlns="http://www.w3.org/2000/svg" viewBox="0 0 1324 1324" width="1324" height="1324">
  <path d="M220.72,1323.47C216.85,1322.95 191.61,1322.74 145.50,1322.84C80.89,1322.98 2.36,1322.68 1.12,1322.29L-0.00,1321.93L0.21,743.34C0.33,425.12 0.40,162.72 0.38,160.25C0.31,152.55 0.26,110.56 0.29,93.50C0.31,84.56 0.31,60.94 0.29,41.00C0.26,11.45 0.38,4.45 0.94,3.13C1.31,2.23 1.76,1.50 1.94,1.50C2.11,1.49 140.18,1.40 308.75,1.28C477.32,1.17 630.77,1.05 649.75,1.02C668.73,1.00 692.58,1.08 702.75,1.20C713.77,1.34 726.00,1.19 733.00,0.83C739.46,0.50 746.10,0.38 747.75,0.56C752.84,1.13 800.07,1.31 907.50,1.17C977.05,1.08 1014.23,0.96 1035.50,0.76C1059.20,0.53 1076.94,0.55 1085.00,0.80C1095.04,1.11 1159.91,0.99 1168.50,0.65C1176.95,0.31 1196.12,0.24 1220.50,0.47C1228.06,0.54 1252.81,0.53 1275.50,0.44C1320.16,0.27 1321.63,0.35 1323.22,2.78C1323.95,3.88 1324.00,9.98 1323.83,68.37C1323.72,103.78 1323.66,133.65 1323.69,134.75C1323.82,139.34 1323.72,1148.34 1323.59,1149.25C1323.42,1150.46 1323.35,1158.70 1323.50,1160.62C1323.62,1162.29 1323.77,1201.53 1323.67,1207.50C1323.63,1209.84 1323.62,1213.33 1323.64,1215.25C1323.69,1220.14 1323.69,1227.38 1323.65,1240.75C1323.63,1247.08 1323.63,1254.39 1323.63,1257.00C1323.64,1259.61 1323.61,1263.33 1323.57,1265.25C1323.24,1281.54 1323.22,1314.84 1323.55,1317.22C1323.90,1319.80 1323.81,1320.45 1322.88,1322.11L1321.80,1324.02L879.78,1323.80C636.66,1323.68 436.96,1323.59 436.00,1323.62C425.58,1323.87 371.43,1323.54 367.25,1323.20C364.23,1322.95 356.91,1322.92 351.00,1323.13C345.09,1323.34 335.30,1323.45 329.25,1323.38C317.84,1323.25 312.00,1323.29 295.50,1323.61C290.14,1323.72 280.24,1323.63 273.50,1323.41C253.25,1322.76 225.11,1322.88 223.64,1323.62C223.42,1323.73 222.11,1323.66 220.72,1323.47ZM1163.00,1312.06C1170.56,1312.16 1179.22,1312.22 1182.25,1312.19C1185.28,1312.17 1214.94,1312.06 1248.17,1311.95C1304.62,1311.76 1308.62,1311.69 1309.21,1310.89C1309.71,1310.20 1309.80,1282.37 1309.66,1171.89C1309.57,1095.91 1309.48,1031.05 1309.46,1027.75C1309.38,1011.46 1309.35,999.98 1309.40,997.50C1309.47,993.38 1309.93,719.14 1309.90,697.75C1309.75,583.31 1311.08,256.17 1312.33,99.50C1312.75,46.45 1312.62,14.00 1311.96,12.42C1311.66,11.69 1310.81,10.84 1310.08,10.55C1309.14,10.16 1293.88,10.09 1258.25,10.28C1120.87,11.04 1097.28,11.13 1085.25,10.95C1070.50,10.73 1056.32,10.74 1036.75,10.97C1029.33,11.06 1012.56,11.11 999.50,11.09C986.44,11.06 962.14,11.16 945.50,11.32C928.86,11.47 913.90,11.59 912.25,11.59C878.16,11.45 684.82,11.85 639.50,12.15C636.61,12.17 622.66,12.14 608.50,12.09C594.34,12.03 574.54,11.96 564.50,11.93C554.46,11.90 545.24,11.84 544.00,11.81C542.76,11.78 529.60,11.93 514.75,12.14C479.81,12.65 395.71,13.20 382.50,13.00C369.27,12.81 246.46,12.80 171.25,12.98C139.07,13.06 91.22,12.99 64.91,12.83C17.53,12.55 17.07,12.55 15.80,13.55C15.10,14.10 14.31,15.39 14.05,16.40C13.38,19.02 13.32,44.77 13.70,183.50C13.99,291.30 14.24,341.31 14.52,346.25C14.57,347.07 14.45,355.85 14.26,365.75C14.07,375.65 13.93,384.20 13.95,384.75C14.04,387.23 14.55,474.89 14.48,476.00C14.38,477.51 14.09,592.75 14.02,654.50C13.99,678.84 14.10,710.56 14.26,725.00C14.41,739.44 14.48,756.54 14.40,763.00C14.32,769.46 14.28,783.08 14.31,793.25C14.34,803.42 14.36,820.41 14.35,831.00C14.30,871.71 14.31,909.04 14.37,915.75C14.40,919.60 14.35,929.73 14.25,938.25C14.11,950.44 13.31,1078.59 13.33,1086.00C13.40,1110.02 13.36,1140.71 13.20,1187.25C12.77,1317.01 12.71,1307.05 13.88,1308.41C14.67,1309.34 15.70,1309.47 25.75,1309.99C36.24,1310.53 151.83,1311.26 172.00,1310.91C182.27,1310.73 188.56,1310.74 206.25,1310.94C212.85,1311.01 235.24,1311.04 256.00,1311.01C276.76,1310.97 348.65,1311.10 415.75,1311.29C482.85,1311.48 629.93,1311.67 742.60,1311.71C855.27,1311.75 947.56,1311.89 947.69,1312.02C947.82,1312.15 993.22,1312.18 1048.59,1312.07C1103.95,1311.97 1155.44,1311.97 1163.00,1312.06ZM1019.26,1277.59C1019.02,1277.35 670.59,1276.89 593.75,1277.02C572.02,1277.06 505.31,1276.98 445.50,1276.85C385.69,1276.71 315.71,1276.60 290.00,1276.60C190.97,1276.60 150.58,1276.43 146.00,1276.00C143.15,1275.73 135.76,1275.74 127.50,1276.02C119.94,1276.28 103.06,1276.41 90.00,1276.30C76.94,1276.19 62.92,1276.08 58.85,1276.05C51.62,1276.00 51.43,1275.97 50.18,1274.73C48.94,1273.49 48.91,1273.27 48.93,1266.85C48.94,1263.22 48.85,1199.05 48.73,1124.25C48.61,1049.45 48.54,972.50 48.58,953.25C48.67,902.83 48.59,817.14 48.41,782.00C48.28,757.74 48.37,697.33 48.55,682.75C48.57,681.10 48.66,630.36 48.74,570.00C48.82,509.64 49.04,411.99 49.24,353.00C49.43,294.01 49.52,229.78 49.45,210.25C49.37,190.72 49.32,170.03 49.33,164.25C49.35,158.47 49.39,130.74 49.43,102.63C49.50,52.56 49.52,51.48 50.48,50.52C51.45,49.55 53.30,49.54 234.11,49.61C455.64,49.69 526.20,49.68 549.50,49.57C559.26,49.52 592.11,49.35 622.50,49.18C652.89,49.01 682.70,48.95 688.75,49.06C694.80,49.16 723.38,49.19 752.25,49.12C781.12,49.05 822.19,49.04 843.50,49.09C864.81,49.15 923.88,49.15 974.75,49.09C1060.44,48.98 1144.98,49.03 1153.25,49.18C1155.17,49.21 1164.96,49.07 1175.00,48.85C1185.04,48.64 1198.94,48.35 1205.88,48.21C1212.83,48.06 1223.86,48.19 1230.38,48.49C1238.85,48.88 1245.68,48.89 1254.20,48.51C1268.19,47.90 1272.20,48.16 1273.82,49.78C1274.88,50.84 1274.94,51.30 1274.98,59.07C1275.03,69.44 1274.97,355.80 1274.91,359.50C1274.89,361.01 1274.99,394.31 1275.13,433.50C1275.27,472.69 1275.22,510.94 1275.02,518.50C1274.82,526.06 1274.83,533.71 1275.05,535.50C1275.27,537.29 1275.42,547.98 1275.39,559.25C1275.36,570.52 1275.37,588.98 1275.40,600.25C1275.43,611.52 1275.44,622.44 1275.42,624.50C1275.37,629.70 1275.35,662.43 1275.38,682.00C1275.40,690.94 1275.40,709.95 1275.39,724.25C1275.37,738.55 1275.40,759.25 1275.45,770.25C1275.56,793.49 1275.52,821.38 1275.37,834.25C1275.31,839.20 1275.38,846.74 1275.51,851.00C1275.64,855.26 1275.74,861.67 1275.72,865.25C1275.68,873.66 1275.39,989.78 1275.40,991.75C1275.41,994.33 1275.03,1165.07 1274.88,1222.17C1274.74,1274.64 1274.70,1276.62 1273.80,1277.28C1273.07,1277.81 1270.96,1277.92 1264.06,1277.76C1259.21,1277.65 1247.71,1277.57 1238.50,1277.58C1119.34,1277.71 1019.38,1277.72 1019.26,1277.59ZM563.25,1270.56C579.20,1270.59 599.11,1270.56 607.50,1270.49C615.89,1270.42 626.12,1270.35 630.25,1270.33C638.42,1270.29 720.94,1270.28 733.50,1270.32C744.45,1270.35 1175.79,1270.64 1189.75,1270.63C1196.08,1270.62 1208.67,1270.64 1217.75,1270.68C1226.83,1270.72 1237.74,1270.66 1242.00,1270.55C1246.26,1270.43 1253.06,1270.52 1257.10,1270.73L1264.46,1271.12L1265.93,1269.65L1267.41,1268.17L1267.54,1246.96C1267.73,1217.94 1267.72,1206.88 1267.51,1188.50C1267.26,1167.06 1267.27,1147.72 1267.53,1142.00C1267.65,1139.39 1267.70,1135.22 1267.64,1132.75C1267.52,1127.44 1266.95,737.46 1266.99,680.88C1267.00,655.57 1267.19,641.15 1267.54,639.55C1267.88,637.96 1267.91,635.78 1267.63,633.42C1267.05,628.57 1267.46,433.28 1268.24,342.75C1268.38,326.80 1268.62,274.38 1268.78,226.25C1268.95,178.12 1269.23,136.39 1269.41,133.50C1269.60,130.61 1269.58,124.90 1269.37,120.80C1269.16,116.70 1269.24,102.30 1269.56,88.80C1270.39,52.69 1270.58,55.40 1267.14,53.69C1265.34,52.80 1263.71,52.76 1233.25,52.88C1215.65,52.95 1170.54,53.12 1133.00,53.25C1095.46,53.39 1054.17,53.65 1041.25,53.85C1028.33,54.04 1014.15,54.17 1009.75,54.13C1001.09,54.07 865.07,54.12 832.00,54.20C820.86,54.23 801.51,54.18 789.00,54.09C769.10,53.95 648.37,54.35 567.75,54.83C552.62,54.92 432.48,55.08 300.75,55.19C132.49,55.33 60.85,55.55 59.90,55.92C56.94,57.09 56.77,57.95 56.59,72.23C56.25,101.32 56.27,127.65 56.70,197.25C57.24,283.87 57.19,265.53 57.09,322.75C57.03,360.78 57.24,422.88 57.51,445.50C57.58,450.84 57.61,559.43 57.55,567.25C57.30,599.93 56.96,740.31 56.82,870.25C56.72,957.42 56.49,1068.80 56.31,1117.75C56.12,1166.70 55.92,1219.80 55.86,1235.75C55.74,1266.70 55.79,1267.32 58.16,1268.59C59.19,1269.13 63.92,1269.17 238.50,1269.78C270.54,1269.89 348.68,1270.08 412.16,1270.19C475.63,1270.30 527.72,1270.56 527.91,1270.75C528.10,1270.94 529.60,1270.97 531.25,1270.80C532.90,1270.64 547.30,1270.53 563.25,1270.56ZM489.66,1194.38C489.10,1193.76 488.40,1192.58 488.10,1191.75C487.12,1188.97 481.06,1174.43 478.68,1169.11C477.41,1166.26 475.72,1161.76 474.93,1159.11C474.66,1158.21 473.91,1156.41 473.26,1155.11C472.61,1153.81 471.48,1150.95 470.76,1148.75C470.03,1146.55 468.99,1144.12 468.44,1143.36C467.90,1142.60 467.03,1140.68 466.51,1139.11C466.00,1137.54 465.11,1135.36 464.54,1134.27C463.97,1133.18 463.50,1131.97 463.50,1131.58C463.50,1131.18 462.34,1128.31 460.92,1125.18C458.51,1119.85 458.19,1119.39 455.80,1117.91C454.40,1117.04 452.14,1116.07 450.79,1115.76C448.00,1115.12 446.86,1113.85 447.52,1112.15L447.95,1111.05L466.59,1111.28C486.77,1111.54 486.88,1111.55 486.22,1114.18C486.00,1115.09 485.47,1115.59 484.57,1115.78C479.63,1116.78 478.00,1117.90 478.00,1120.28C478.00,1121.38 479.52,1126.14 480.70,1128.75C481.58,1130.70 483.89,1136.20 484.89,1138.75C485.32,1139.85 486.06,1141.65 486.53,1142.75C487.29,1144.51 489.76,1150.96 494.54,1163.61C495.34,1165.73 496.00,1167.79 496.00,1168.18C496.00,1168.57 496.42,1169.41 496.94,1170.05C497.73,1171.03 498.01,1171.11 498.66,1170.58C499.33,1170.02 503.00,1162.97 503.00,1162.24C503.00,1162.09 503.80,1160.36 504.77,1158.39C505.74,1156.43 507.19,1153.00 507.98,1150.78C508.78,1148.56 511.26,1142.59 513.50,1137.50C518.67,1125.79 519.06,1124.70 519.07,1122.17C519.09,1118.74 517.58,1117.20 513.25,1116.25C510.26,1115.59 508.84,1112.66 510.97,1111.52C512.01,1110.96 539.31,1110.77 540.71,1111.30C541.66,1111.67 541.77,1114.16 540.88,1114.87C540.53,1115.14 539.27,1115.51 538.08,1115.69C534.65,1116.22 532.28,1117.73 529.11,1121.42C526.88,1124.00 525.81,1125.81 524.73,1128.79C523.95,1130.97 522.31,1135.00 521.10,1137.75C519.89,1140.50 518.16,1144.55 517.25,1146.75C516.34,1148.95 514.80,1152.33 513.84,1154.25C512.87,1156.17 510.92,1160.22 509.49,1163.25C504.21,1174.43 503.42,1176.20 499.07,1186.75C497.70,1190.05 496.03,1193.37 495.35,1194.12C493.76,1195.90 491.14,1196.01 489.66,1194.38ZM708.48,1194.75C703.93,1194.12 700.23,1193.12 695.66,1191.27C693.26,1190.29 692.00,1187.92 692.00,1184.39C692.00,1183.25 691.51,1179.88 690.92,1176.91C689.57,1170.20 689.88,1169.00 692.99,1169.00C695.53,1169.00 696.78,1170.19 697.26,1173.07C697.45,1174.27 697.83,1175.65 698.09,1176.15C698.68,1177.28 704.34,1183.88 706.00,1185.38C709.45,1188.49 713.99,1190.07 719.50,1190.08C723.60,1190.10 726.72,1188.97 729.17,1186.60C732.20,1183.67 733.12,1181.42 733.19,1176.77C733.24,1173.20 733.09,1172.48 731.84,1170.34C729.86,1166.98 725.30,1163.78 715.51,1158.88C709.24,1155.74 706.24,1153.90 703.01,1151.19C700.67,1149.24 698.28,1147.10 697.71,1146.44C695.58,1144.01 694.09,1140.66 693.47,1136.94C692.91,1133.61 692.93,1132.69 693.67,1129.69C694.91,1124.61 697.10,1120.52 700.12,1117.67C703.59,1114.39 706.26,1112.88 712.00,1110.96C720.01,1108.28 728.96,1108.40 739.65,1111.35C742.83,1112.22 743.74,1113.25 743.27,1115.43C743.10,1116.19 743.42,1118.77 743.98,1121.17C744.54,1123.57 745.00,1126.21 745.00,1127.02C745.00,1128.97 743.35,1130.61 741.59,1130.41C740.48,1130.28 739.95,1129.65 738.55,1126.81C736.80,1123.26 731.82,1117.45 729.52,1116.26C728.81,1115.89 726.97,1115.26 725.44,1114.86C720.33,1113.53 713.15,1115.85 710.59,1119.67C708.47,1122.85 708.00,1124.28 708.00,1127.54C708.00,1134.98 713.97,1140.43 728.14,1145.94C738.95,1150.15 746.17,1156.23 748.07,1162.72C750.82,1172.10 748.66,1179.12 740.31,1187.92C739.18,1189.11 737.65,1190.40 736.92,1190.78C734.42,1192.09 725.26,1194.41 720.41,1194.96C714.75,1195.59 714.68,1195.59 708.48,1194.75ZM847.96,1195.29C847.84,1195.18 845.91,1194.83 843.65,1194.52C838.35,1193.79 834.45,1192.76 831.57,1191.33C820.57,1185.85 818.01,1183.65 813.15,1175.50C809.11,1168.73 808.22,1166.57 807.26,1161.18C806.08,1154.57 806.42,1147.00 808.18,1141.20C809.71,1136.12 810.31,1134.96 814.67,1128.59C817.49,1124.47 819.00,1122.82 822.17,1120.40C830.39,1114.13 839.48,1110.64 850.50,1109.54C857.09,1108.88 861.34,1109.30 869.00,1111.35C871.61,1112.05 874.20,1112.74 874.75,1112.89C876.81,1113.43 883.90,1118.87 887.88,1122.98C891.37,1126.57 892.45,1128.12 894.79,1132.86C897.07,1137.47 897.70,1139.33 898.28,1143.12C899.50,1151.14 899.01,1161.31 897.17,1166.32C896.52,1168.08 891.48,1176.57 889.55,1179.16C886.91,1182.69 885.02,1184.36 879.70,1187.85C872.92,1192.29 869.24,1193.63 860.00,1194.99C856.73,1195.47 848.35,1195.68 847.96,1195.29ZM1103.62,1194.45C1102.75,1193.54 1102.85,1191.25 1103.80,1190.46C1104.23,1190.10 1105.80,1189.74 1107.28,1189.67C1110.47,1189.51 1113.52,1188.08 1114.96,1186.06C1115.94,1184.67 1116.00,1183.91 1116.07,1171.92C1116.14,1157.22 1115.99,1156.48 1111.43,1149.63C1108.09,1144.63 1106.27,1141.66 1103.98,1137.50C1101.78,1133.52 1095.67,1124.03 1093.41,1121.09C1091.61,1118.74 1089.03,1117.17 1085.50,1116.27C1083.57,1115.77 1083.23,1115.49 1083.09,1114.28C1083.00,1113.51 1083.18,1112.62 1083.49,1112.31C1084.03,1111.77 1093.63,1111.47 1111.89,1111.42C1119.94,1111.40 1120.75,1111.67 1120.23,1114.20C1119.81,1116.20 1118.75,1117.00 1116.52,1117.00C1113.98,1117.00 1112.33,1118.26 1112.67,1119.94C1112.96,1121.34 1117.62,1129.44 1122.25,1136.61C1123.81,1139.01 1125.50,1142.13 1126.01,1143.54C1128.56,1150.50 1130.19,1150.27 1134.88,1142.27C1136.17,1140.08 1137.82,1137.60 1138.55,1136.76C1139.28,1135.93 1141.52,1131.92 1143.52,1127.85L1147.16,1120.45L1146.16,1119.10C1145.23,1117.86 1144.24,1117.46 1140.16,1116.70C1137.47,1116.20 1136.58,1113.12 1138.72,1111.72C1139.79,1111.02 1141.68,1110.96 1153.93,1111.17C1168.20,1111.43 1170.00,1111.68 1170.00,1113.41C1170.00,1115.17 1168.56,1116.43 1166.12,1116.79C1164.82,1116.98 1162.91,1117.46 1161.88,1117.87C1159.51,1118.80 1152.20,1126.42 1150.46,1129.77C1149.75,1131.13 1146.81,1135.65 1143.93,1139.82C1141.05,1143.98 1137.73,1149.27 1136.56,1151.58C1134.60,1155.44 1134.39,1156.25 1133.93,1161.52C1133.65,1164.67 1133.51,1170.74 1133.62,1175.00C1133.89,1186.42 1134.96,1188.30 1141.75,1189.26C1144.73,1189.68 1146.50,1190.68 1146.50,1191.95C1146.50,1194.02 1145.57,1194.16 1131.10,1194.30C1123.48,1194.37 1114.33,1194.58 1110.75,1194.77C1105.70,1195.03 1104.11,1194.96 1103.62,1194.45ZM1027.15,1193.71C1018.80,1192.88 1016.05,1191.54 1011.23,1185.95C1007.94,1182.13 1000.15,1170.26 997.54,1165.10C995.78,1161.61 993.28,1159.19 990.77,1158.56C987.57,1157.75 985.63,1157.87 984.57,1158.93C983.73,1159.77 983.61,1161.02 983.39,1171.30C983.16,1181.59 983.22,1182.93 984.02,1184.50C985.03,1186.49 987.02,1187.67 991.00,1188.64C993.59,1189.27 993.76,1189.40 993.91,1190.97C994.00,1191.88 993.85,1192.85 993.58,1193.12C993.28,1193.42 985.95,1193.62 974.42,1193.63L955.75,1193.64L955.59,1192.29C955.36,1190.37 956.19,1189.64 959.34,1188.98C963.08,1188.20 965.71,1185.84 966.44,1182.61C966.77,1181.14 967.02,1169.10 967.11,1150.67C967.25,1121.30 967.24,1121.07 966.20,1119.67C964.98,1118.02 963.82,1117.40 959.85,1116.26C957.03,1115.46 956.95,1115.38 957.10,1113.84C957.25,1112.27 957.29,1112.25 960.50,1111.93C966.08,1111.37 996.96,1111.37 1003.00,1111.93C1011.17,1112.68 1013.81,1113.51 1018.91,1116.94C1023.83,1120.25 1025.53,1122.37 1026.78,1126.74C1027.79,1130.25 1027.51,1138.06 1026.29,1140.42C1024.62,1143.64 1021.31,1147.05 1016.79,1150.21C1011.30,1154.04 1011.23,1154.21 1013.67,1158.63C1017.46,1165.52 1019.70,1169.35 1020.77,1170.78C1021.39,1171.62 1022.25,1173.14 1022.68,1174.16C1023.10,1175.17 1024.98,1177.66 1026.85,1179.69C1028.72,1181.72 1031.13,1184.44 1032.20,1185.74C1033.42,1187.21 1035.20,1188.59 1036.95,1189.43C1038.98,1190.40 1039.80,1191.08 1039.91,1191.91C1040.31,1194.69 1038.98,1194.88 1027.15,1193.71ZM338.34,1193.18C338.17,1193.01 330.83,1192.88 322.01,1192.89C306.53,1192.92 305.97,1192.88 305.46,1191.93C304.66,1190.43 306.01,1188.70 308.32,1188.27C310.81,1187.80 313.46,1186.41 315.00,1184.76L316.25,1183.42L316.52,1165.59C316.93,1138.21 316.76,1122.02 316.04,1120.17C315.35,1118.38 313.48,1117.31 309.60,1116.48C308.21,1116.18 306.80,1115.61 306.48,1115.22C305.71,1114.29 306.26,1112.16 307.44,1111.53C308.96,1110.72 350.22,1110.63 356.25,1111.42C372.74,1113.60 379.82,1116.55 388.25,1124.75C392.77,1129.15 392.92,1129.37 394.89,1134.54C396.01,1137.45 397.19,1141.24 397.53,1142.96C398.64,1148.60 397.48,1159.08 395.06,1165.16C393.81,1168.31 389.08,1175.39 386.50,1177.98C381.83,1182.67 375.30,1186.92 371.17,1187.96C370.11,1188.22 367.90,1188.92 366.25,1189.50C360.42,1191.55 352.12,1193.03 345.23,1193.26C341.61,1193.38 338.51,1193.34 338.34,1193.18ZM608.72,1193.12C593.63,1192.98 593.03,1192.91 593.01,1191.16C592.99,1189.98 594.51,1189.11 597.16,1188.78C600.29,1188.39 601.70,1187.31 603.02,1184.30C603.82,1182.48 603.95,1179.88 604.24,1161.12C604.41,1149.49 604.56,1136.87 604.56,1133.07C604.57,1126.32 603.92,1120.72 602.92,1118.85C602.30,1117.70 600.01,1116.71 596.86,1116.24C594.10,1115.83 593.23,1114.78 593.99,1112.78L594.48,1111.50L606.61,1111.39C630.41,1111.19 632.76,1111.21 633.38,1111.66C635.06,1112.90 633.07,1116.07 630.88,1115.65C629.32,1115.35 624.96,1117.20 623.47,1118.78C622.53,1119.78 622.27,1120.83 621.91,1125.12C621.67,1127.94 621.49,1133.96 621.51,1138.50C621.53,1143.04 621.40,1153.89 621.22,1162.62C620.93,1176.58 620.99,1178.91 621.74,1181.95C622.80,1186.28 623.71,1187.27 627.36,1188.01C631.70,1188.89 632.50,1189.31 632.50,1190.70C632.50,1192.93 631.28,1193.55 627.27,1193.39C625.27,1193.31 616.93,1193.19 608.72,1193.12ZM160.33,1192.66C159.78,1192.11 159.96,1189.74 160.62,1188.90C160.97,1188.47 162.47,1187.72 163.96,1187.24C168.91,1185.64 170.62,1183.39 176.67,1170.50C178.77,1166.05 179.73,1163.78 181.25,1159.75C183.03,1155.02 187.85,1144.07 189.73,1140.50C190.67,1138.71 192.33,1135.00 193.42,1132.25C194.51,1129.50 196.47,1124.89 197.77,1122.00C199.06,1119.11 200.61,1115.40 201.22,1113.75C202.23,1110.97 202.51,1110.65 205.03,1109.39C206.53,1108.65 208.41,1108.08 209.22,1108.14C210.83,1108.26 210.94,1108.46 214.75,1118.75C215.67,1121.22 217.48,1125.72 218.77,1128.75C223.22,1139.18 226.64,1147.77 229.02,1154.50C233.76,1167.90 239.23,1180.40 241.87,1183.86C243.31,1185.74 246.16,1187.50 249.41,1188.51C251.98,1189.31 252.99,1190.73 251.81,1191.90C251.13,1192.59 248.96,1192.67 234.48,1192.57C225.38,1192.50 217.38,1192.24 216.71,1191.99C215.89,1191.67 215.50,1191.14 215.50,1190.32C215.50,1188.86 216.34,1188.11 218.44,1187.69C220.59,1187.26 222.00,1185.35 222.00,1182.87C222.00,1180.96 219.89,1175.51 216.63,1169.00C214.47,1164.70 213.81,1164.50 201.36,1164.50C188.06,1164.50 187.36,1164.76 185.23,1170.60C180.83,1182.64 180.69,1183.68 183.19,1185.88C184.12,1186.70 185.67,1187.51 186.62,1187.69C189.73,1188.28 191.04,1191.28 188.61,1192.25C187.48,1192.69 160.75,1193.08 160.33,1192.66ZM861.38,1189.10C866.79,1187.32 872.97,1181.77 875.51,1176.40C876.33,1174.67 877.00,1172.91 877.00,1172.50C877.00,1172.09 877.43,1170.62 877.96,1169.23C878.92,1166.69 879.89,1160.42 879.88,1156.75C879.86,1150.01 878.27,1138.59 876.80,1134.61C874.07,1127.25 874.10,1127.31 870.14,1123.60C863.70,1117.56 863.09,1117.23 854.90,1115.47C850.58,1114.53 845.04,1115.11 841.74,1116.84C837.27,1119.18 832.45,1123.89 830.26,1128.05C825.89,1136.35 824.35,1149.08 826.46,1159.46C828.50,1169.55 830.63,1174.71 835.25,1180.73C837.61,1183.80 838.54,1184.56 842.48,1186.64C844.96,1187.95 848.22,1189.30 849.71,1189.64C852.62,1190.30 858.57,1190.03 861.38,1189.10ZM361.86,1184.44C368.97,1179.85 372.44,1175.71 375.39,1168.24C376.95,1164.31 377.54,1161.88 378.18,1156.82C378.63,1153.29 378.89,1150.23 378.77,1150.04C378.65,1149.84 378.34,1147.54 378.07,1144.93C376.86,1133.13 371.42,1124.63 361.75,1119.42C358.65,1117.76 355.25,1116.98 349.06,1116.51C341.94,1115.97 335.80,1116.77 334.46,1118.43C333.42,1119.71 332.78,1123.84 333.27,1126.09C333.47,1126.99 333.67,1139.77 333.71,1154.49L333.79,1181.25L334.93,1183.10C335.71,1184.36 336.72,1185.18 338.16,1185.70C341.37,1186.87 342.18,1186.94 350.61,1186.78L358.48,1186.63L361.86,1184.44ZM211.40,1157.40C211.73,1157.07 212.00,1156.45 211.99,1156.03C211.99,1155.25 208.62,1146.40 205.33,1138.55C204.37,1136.24 203.47,1133.94 203.34,1133.43C203.02,1132.22 201.68,1131.73 200.76,1132.49C200.36,1132.82 199.59,1134.25 199.04,1135.67C197.58,1139.48 195.09,1145.47 194.02,1147.75C193.50,1148.85 192.68,1151.06 192.19,1152.66C190.69,1157.55 191.28,1157.83 203.27,1157.93C208.54,1157.98 210.98,1157.82 211.40,1157.40ZM994.88,1152.75C1004.54,1150.47 1009.99,1143.35 1009.99,1133.00C1009.99,1127.56 1007.52,1123.68 1001.49,1119.63C998.26,1117.46 995.91,1116.92 990.52,1117.09L985.78,1117.25L984.95,1120.94C984.31,1123.76 984.08,1127.62 983.98,1137.19C983.91,1144.10 983.89,1150.14 983.93,1150.61C984.02,1151.75 985.63,1152.55 988.71,1153.00C990.11,1153.21 991.36,1153.40 991.50,1153.43C991.64,1153.46 993.16,1153.15 994.88,1152.75ZM941.95,1017.29C941.50,1016.84 831.69,1016.10 814.75,1016.44C803.69,1016.65 789.11,1016.73 765.00,1016.69C755.51,1016.68 736.95,1016.68 723.75,1016.69C686.11,1016.74 678.88,1016.58 678.00,1015.71C677.40,1015.11 677.23,1013.29 677.17,1006.61C677.07,996.28 677.26,994.67 678.67,993.91C679.26,993.59 682.45,993.17 685.75,992.99C689.05,992.80 693.21,992.29 695.00,991.87C696.79,991.44 699.71,990.83 701.50,990.51C708.93,989.20 715.41,986.74 720.50,983.29C723.91,980.98 724.42,980.41 726.11,977.00C727.78,973.62 727.97,972.86 727.96,969.25C727.96,967.05 727.61,963.90 727.18,962.25C726.75,960.60 726.23,958.01 726.03,956.50C725.55,952.85 721.81,944.07 719.01,940.00C718.54,939.31 716.11,934.78 713.62,929.93C711.12,925.08 708.20,919.68 707.12,917.93C702.12,909.82 699.28,905.11 694.50,897.00C691.66,892.19 688.36,886.62 687.17,884.63C685.98,882.64 685.00,880.89 685.00,880.74C685.00,880.59 683.69,878.50 682.09,876.11C680.50,873.71 678.08,869.89 676.72,867.62C675.36,865.34 673.46,862.18 672.50,860.58C671.54,858.97 669.77,856.00 668.57,853.96C667.37,851.92 665.87,849.46 665.24,848.50C663.79,846.26 660.00,839.94 660.00,839.75C660.00,839.67 659.11,838.17 658.02,836.43C656.93,834.68 653.44,828.98 650.26,823.75C647.08,818.52 643.46,812.60 642.21,810.59C639.57,806.33 639.43,806.85 644.59,801.25C646.36,799.33 649.13,796.06 650.75,794.00C652.38,791.94 655.63,788.03 657.98,785.31C660.33,782.59 663.14,779.22 664.22,777.81C665.30,776.40 668.46,772.66 671.23,769.50C674.00,766.34 676.94,762.85 677.76,761.75C679.08,759.97 685.10,752.64 698.90,736.01C701.29,733.13 704.46,729.24 705.95,727.38C708.67,723.97 710.24,723.16 710.84,724.88C711.01,725.36 712.31,727.55 713.74,729.75C716.16,733.48 717.13,735.03 722.58,743.88C723.72,745.73 725.48,748.49 726.49,750.00C727.50,751.51 729.66,755.00 731.28,757.75C732.90,760.50 735.49,764.66 737.03,767.00C738.57,769.34 740.96,773.16 742.33,775.50C743.71,777.84 746.53,782.34 748.59,785.50C750.65,788.66 754.55,794.96 757.25,799.50C759.96,804.04 763.23,809.44 764.52,811.50C765.81,813.56 767.61,816.60 768.51,818.25C769.42,819.90 771.09,822.60 772.24,824.25C775.08,828.35 783.00,840.85 783.00,841.24C783.00,841.41 783.87,842.84 784.93,844.40C787.62,848.37 790.96,853.83 792.33,856.50C793.80,859.35 794.76,860.90 800.05,868.81C804.15,874.96 807.12,879.75 810.82,886.18C811.75,887.78 813.73,890.99 815.23,893.29C816.73,895.59 818.34,898.21 818.80,899.11C820.13,901.72 831.64,919.17 835.55,924.50C836.66,926.01 837.95,927.81 838.40,928.50C840.27,931.29 848.81,942.40 850.71,944.51C854.06,948.23 869.93,963.14 874.50,966.87C878.20,969.88 884.10,974.00 884.73,974.00C884.85,974.00 886.94,975.22 889.39,976.71C891.84,978.20 894.94,979.97 896.29,980.65C897.64,981.32 900.44,982.72 902.50,983.75C911.65,988.33 920.86,990.79 939.00,993.52C944.74,994.38 944.93,994.44 945.52,995.54C945.82,996.10 946.15,999.76 946.24,1003.66C946.33,1007.56 946.56,1011.66 946.75,1012.76C947.02,1014.34 946.89,1015.01 946.17,1015.85C945.30,1016.86 942.49,1017.82 941.95,1017.29ZM402.26,1016.60C401.37,1015.70 402.20,1014.47 407.69,1008.50C408.58,1007.54 409.96,1005.85 410.77,1004.75C411.58,1003.65 414.05,1000.61 416.26,998.00C418.47,995.39 421.16,992.12 422.23,990.75C423.31,989.38 425.32,987.00 426.72,985.46C431.34,980.38 435.68,975.08 436.47,973.56C436.90,972.74 438.84,970.30 440.77,968.16C442.71,966.01 445.55,962.67 447.07,960.75C448.60,958.83 450.25,956.92 450.74,956.51C451.23,956.10 452.18,954.90 452.85,953.85C453.51,952.79 455.23,950.63 456.65,949.04C458.08,947.46 460.82,944.18 462.75,941.76C464.68,939.34 467.55,935.76 469.14,933.80C470.73,931.85 473.24,928.67 474.71,926.75C476.18,924.83 477.99,922.69 478.74,922.00C479.49,921.31 480.80,919.74 481.65,918.50C482.49,917.26 484.52,914.79 486.15,913.00C487.79,911.21 489.63,908.96 490.25,908.00C491.53,906.00 496.71,899.75 499.63,896.67C500.72,895.53 502.32,893.60 503.18,892.38C504.05,891.16 505.82,888.94 507.12,887.46C513.96,879.59 517.02,875.90 519.44,872.62C520.90,870.62 522.84,868.37 523.73,867.62C524.63,866.87 525.95,865.35 526.67,864.25C527.39,863.15 528.99,861.01 530.23,859.50C531.48,857.99 533.15,855.89 533.96,854.85C536.09,852.10 541.88,845.23 544.56,842.29C545.83,840.89 547.54,838.66 548.36,837.33C549.18,836.01 550.43,834.54 551.15,834.07C552.41,833.24 554.78,830.39 560.04,823.39C561.43,821.54 563.08,819.62 563.71,819.12C564.35,818.62 565.25,817.46 565.73,816.55C566.20,815.63 567.30,814.15 568.17,813.26C569.04,812.37 571.33,809.67 573.25,807.26C575.17,804.85 578.72,800.53 581.13,797.66C583.53,794.78 585.75,791.94 586.05,791.34C586.35,790.74 587.54,789.33 588.68,788.22C589.82,787.10 591.88,784.75 593.25,783.01C594.62,781.26 597.07,778.35 598.69,776.54C600.31,774.73 602.21,772.46 602.91,771.50C603.61,770.54 604.87,769.05 605.72,768.20C606.56,767.36 608.70,764.66 610.48,762.20C612.26,759.75 614.82,756.52 616.17,755.02C617.52,753.51 619.20,751.38 619.89,750.27C620.59,749.16 622.98,746.22 625.21,743.73C627.43,741.24 630.32,737.86 631.62,736.22C638.27,727.91 641.84,723.53 648.76,715.25C657.16,705.19 666.93,693.21 668.75,690.75C669.56,689.65 672.15,686.50 674.49,683.75C676.84,681.00 679.77,677.51 681.00,676.00C682.24,674.50 683.74,672.70 684.34,672.00C684.94,671.31 686.07,669.92 686.84,668.91C691.33,663.04 695.00,658.48 699.35,653.35C702.04,650.16 705.98,645.47 708.10,642.91C710.22,640.34 713.71,636.15 715.85,633.59C718.00,631.02 721.43,626.64 723.49,623.84C725.55,621.05 729.04,616.84 731.24,614.48C733.45,612.12 736.54,608.39 738.11,606.19C739.68,603.99 742.27,600.74 743.87,598.97C745.47,597.20 747.15,595.17 747.60,594.46C748.54,592.97 755.66,584.64 758.31,581.93C759.29,580.92 760.80,579.08 761.67,577.83C764.45,573.83 767.62,569.83 770.25,567.00C771.66,565.49 773.85,562.79 775.11,561.00C776.37,559.21 779.85,554.92 782.83,551.45C788.30,545.10 790.58,542.33 798.69,532.26C801.13,529.23 803.52,526.41 803.98,526.00C804.45,525.59 806.26,523.45 808.01,521.25C809.76,519.05 812.24,516.11 813.53,514.72C814.82,513.33 816.22,511.53 816.64,510.72C817.07,509.91 818.84,507.90 820.59,506.25C822.33,504.60 824.83,501.65 826.13,499.69C827.43,497.73 830.46,493.86 832.87,491.10C837.83,485.40 841.72,480.74 844.12,477.64C845.02,476.48 847.11,473.89 848.77,471.89C850.43,469.89 852.52,467.19 853.41,465.89C854.30,464.59 855.82,462.92 856.79,462.18C857.76,461.44 858.91,460.14 859.34,459.29C859.77,458.44 861.17,456.51 862.45,455.00C863.73,453.49 865.56,451.24 866.50,450.00C869.05,446.66 874.24,440.59 876.98,437.75C878.30,436.38 879.66,434.72 879.98,434.08C880.31,433.44 882.19,431.11 884.17,428.91C886.14,426.70 888.99,423.36 890.50,421.48C897.46,412.84 900.94,408.67 901.98,407.75C902.60,407.20 903.54,405.96 904.06,405.00C904.58,404.04 906.08,401.96 907.38,400.39C908.68,398.81 911.76,394.99 914.21,391.89C916.67,388.79 919.95,384.90 921.51,383.25C923.07,381.60 924.70,379.56 925.14,378.71C925.58,377.87 926.32,376.86 926.80,376.46C927.89,375.55 936.40,365.31 937.98,363.00C938.63,362.04 940.54,359.76 942.21,357.95C946.24,353.57 951.39,347.41 953.25,344.74C954.08,343.55 956.55,340.40 958.75,337.74C960.95,335.08 963.18,332.30 963.72,331.57C964.25,330.85 966.18,328.68 968.02,326.75C969.86,324.82 972.38,321.68 973.63,319.75C977.98,313.04 979.25,312.43 988.37,312.61C994.20,312.73 995.26,312.87 995.39,313.55C995.57,314.46 988.58,324.44 985.07,328.31C983.80,329.71 980.95,333.19 978.75,336.03C976.55,338.88 973.32,342.79 971.58,344.73C969.84,346.67 966.88,350.27 965.01,352.75C963.14,355.23 960.28,358.71 958.65,360.50C957.03,362.29 954.66,365.10 953.39,366.75C951.13,369.68 950.27,370.70 942.50,379.77C940.44,382.17 937.62,385.56 936.25,387.30C927.70,398.12 924.39,402.20 921.27,405.80C912.97,415.35 906.06,423.77 903.86,427.00C903.01,428.24 901.20,430.49 899.83,432.00C898.46,433.51 896.43,435.99 895.31,437.50C894.19,439.01 890.89,443.06 887.97,446.50C885.05,449.94 881.90,453.79 880.96,455.06C877.60,459.60 874.20,463.86 868.27,470.95C862.69,477.63 860.70,480.10 856.75,485.28C855.92,486.36 852.81,490.06 849.82,493.50C846.83,496.94 843.51,501.03 842.45,502.59C841.38,504.16 840.29,505.57 840.03,505.73C839.42,506.11 832.69,514.11 830.75,516.75C829.95,517.85 828.16,520.01 826.77,521.54C825.38,523.07 823.30,525.55 822.13,527.04C817.64,532.79 814.61,536.53 810.99,540.81C808.92,543.25 806.12,546.71 804.77,548.50C803.43,550.29 801.18,553.02 799.79,554.58C798.39,556.13 796.24,558.69 795.00,560.27C793.76,561.84 791.43,564.73 789.82,566.69C788.22,568.65 785.52,571.96 783.82,574.06C782.13,576.15 778.73,580.17 776.25,582.99C773.77,585.81 771.32,588.71 770.79,589.43C770.26,590.16 769.09,591.54 768.18,592.51C767.27,593.47 765.56,595.54 764.39,597.09C763.21,598.65 760.73,601.80 758.88,604.09C757.03,606.38 753.54,610.76 751.13,613.83C748.72,616.91 744.03,622.64 740.71,626.58C737.39,630.53 733.02,635.89 731.00,638.50C728.97,641.11 725.03,645.95 722.24,649.25C719.45,652.55 714.91,658.06 712.15,661.50C709.39,664.94 706.71,668.23 706.19,668.82C704.96,670.21 689.01,689.67 685.60,693.94C684.15,695.76 681.90,698.47 680.62,699.96C679.33,701.45 677.05,704.27 675.55,706.21C674.05,708.16 672.01,710.66 671.03,711.78C670.05,712.90 668.01,715.34 666.50,717.22C664.99,719.09 661.61,723.13 658.99,726.19C653.92,732.11 645.20,742.91 642.80,746.24C642.00,747.35 639.51,750.39 637.26,753.00C633.45,757.44 625.73,766.66 619.06,774.75C617.47,776.67 614.96,779.83 613.48,781.75C612.00,783.67 609.54,786.71 608.00,788.50C606.46,790.29 604.00,793.33 602.51,795.25C600.10,798.38 593.63,806.22 585.16,816.25C581.03,821.15 574.71,828.81 571.75,832.54C570.38,834.26 568.24,836.83 567.00,838.25C564.92,840.63 563.31,842.60 557.40,850.00C551.85,856.94 548.81,860.61 544.78,865.21C542.39,867.93 539.17,871.87 537.62,873.96C536.07,876.04 533.89,878.79 532.78,880.06C527.83,885.69 515.76,900.16 505.92,912.25C504.35,914.17 501.82,917.21 500.31,919.00C498.79,920.79 496.15,924.05 494.45,926.25C492.75,928.45 490.75,930.92 490.00,931.75C489.25,932.58 487.42,934.84 485.94,936.79C484.46,938.74 481.67,942.23 479.74,944.54C477.81,946.86 475.64,949.55 474.91,950.53C474.18,951.51 472.58,953.35 471.35,954.62C470.13,955.88 467.85,958.61 466.29,960.68C464.73,962.75 462.74,965.19 461.86,966.10C460.98,967.01 459.14,969.13 457.76,970.82C451.05,979.03 447.06,983.89 445.13,986.21C443.97,987.61 441.67,990.47 440.02,992.58C438.38,994.68 435.43,998.28 433.48,1000.58C431.53,1002.87 428.66,1006.29 427.09,1008.17C422.07,1014.22 420.86,1015.54 419.80,1016.11C418.76,1016.67 402.78,1017.11 402.26,1016.60ZM243.00,805.50C237.09,805.36 232.01,805.10 231.72,804.91C230.89,804.36 230.79,782.30 231.61,781.63C232.35,781.03 235.55,780.64 245.25,779.96C255.52,779.25 259.92,778.64 266.25,777.05C267.35,776.78 269.26,776.32 270.50,776.03C271.74,775.75 273.59,775.29 274.62,775.01C275.66,774.73 277.23,774.30 278.12,774.06C284.89,772.22 292.82,767.85 298.69,762.71C302.89,759.02 303.96,757.45 306.48,751.25C307.20,749.47 309.52,741.33 310.40,737.50C313.39,724.51 313.33,726.29 313.94,635.00C314.18,599.66 314.44,563.21 314.52,554.00C314.60,544.79 314.64,531.06 314.61,523.50C314.57,512.09 314.88,410.99 315.15,348.00C315.23,331.47 314.43,310.66 313.45,303.63C312.61,297.56 309.18,284.59 307.54,281.26C304.49,275.09 296.27,267.55 289.07,264.32C277.75,259.24 260.44,255.22 245.75,254.26C238.76,253.80 235.01,253.16 234.01,252.26C233.27,251.59 233.11,250.11 232.87,242.15C232.72,237.03 232.71,232.52 232.86,232.15C233.00,231.78 233.54,231.24 234.06,230.97C235.14,230.39 257.14,229.71 271.00,229.83C276.09,229.87 292.85,229.94 308.25,229.98C323.65,230.02 343.00,230.09 351.25,230.13C359.50,230.17 373.00,230.11 381.25,230.00C409.81,229.63 532.79,229.75 542.50,230.16C553.30,230.62 568.65,231.90 588.50,234.00C590.84,234.25 594.51,234.80 596.67,235.22C598.82,235.65 601.30,236.00 602.17,236.00C605.20,235.99 622.60,239.40 633.25,242.08C646.94,245.53 656.08,248.51 664.50,252.25C666.56,253.17 670.78,255.04 673.86,256.41C682.99,260.46 696.40,267.75 701.50,271.45C704.11,273.34 707.83,276.03 709.75,277.43C713.89,280.44 726.55,292.80 730.58,297.76C736.32,304.82 737.85,306.81 739.80,309.75C741.90,312.91 750.00,327.54 750.00,328.17C750.00,328.37 751.10,331.39 752.46,334.89C754.67,340.62 756.73,348.15 760.10,362.76C761.18,367.46 761.24,368.68 761.15,383.50C761.09,394.96 760.85,400.68 760.27,404.50C759.44,410.01 757.22,421.69 756.52,424.25C756.30,425.07 755.83,427.10 755.47,428.75C755.12,430.40 754.50,432.43 754.09,433.25C753.68,434.07 753.17,435.43 752.97,436.25C751.28,443.11 743.77,458.74 738.63,466.09C727.06,482.65 719.48,490.87 702.67,505.06C698.47,508.61 688.19,515.64 684.50,517.50C683.26,518.12 680.56,519.81 678.50,521.25C674.56,524.01 670.96,526.00 669.93,526.00C669.59,526.00 667.09,527.27 664.38,528.82C659.53,531.59 647.42,536.93 643.00,538.25C641.76,538.62 639.17,539.52 637.25,540.26C628.72,543.53 614.94,547.59 608.34,548.78C607.28,548.97 606.30,549.44 606.16,549.81C605.60,551.25 605.96,551.98 613.49,564.75C614.79,566.95 616.92,570.77 618.23,573.25C619.54,575.73 621.57,579.10 622.72,580.75C623.88,582.40 625.38,584.76 626.04,585.99C626.71,587.22 628.43,590.15 629.87,592.49C631.31,594.83 633.78,599.07 635.37,601.90C636.95,604.74 640.30,610.27 642.80,614.20C645.30,618.12 648.14,622.78 649.10,624.54C652.66,631.08 653.67,632.82 655.74,636.00C658.46,640.18 659.50,642.23 659.50,643.37C659.50,643.88 658.21,645.76 656.62,647.57C655.04,649.37 652.35,652.51 650.64,654.55C648.93,656.58 645.72,660.39 643.52,663.00C638.89,668.49 629.75,679.62 621.50,689.80C618.34,693.70 613.73,699.25 611.25,702.13C606.94,707.14 600.91,714.58 594.98,722.19C593.46,724.14 591.84,725.81 591.38,725.90C590.82,726.01 589.83,724.96 588.33,722.66C585.63,718.52 580.21,709.84 578.98,707.68C578.48,706.81 576.99,704.34 575.66,702.18C574.34,700.02 572.92,697.57 572.51,696.75C571.83,695.38 568.28,689.79 565.88,686.33C564.70,684.61 560.00,676.52 560.00,676.19C560.00,676.06 558.34,673.32 556.32,670.10C554.29,666.88 551.51,662.34 550.13,660.00C548.76,657.66 546.50,653.84 545.12,651.50C543.74,649.16 540.54,643.65 537.99,639.25C535.45,634.85 531.79,628.77 529.86,625.75C525.59,619.07 522.58,614.27 518.72,608.00C510.21,594.16 505.21,587.30 500.09,582.43C495.84,578.39 494.16,577.18 489.64,574.89C486.67,573.39 482.90,571.66 481.25,571.04C479.60,570.42 477.65,569.60 476.92,569.21C473.06,567.15 458.09,566.00 435.18,566.00L420.48,566.00L419.97,567.34C419.69,568.08 419.42,572.86 419.38,577.97C419.32,584.90 419.30,635.52 419.35,648.75C419.35,649.58 419.39,658.35 419.44,668.25C419.48,678.15 419.48,687.04 419.43,688.00C419.39,688.96 419.48,697.51 419.63,707.00C419.97,727.87 420.42,731.61 424.24,745.72C425.55,750.59 432.28,762.58 434.63,764.26C441.56,769.20 445.99,771.67 450.66,773.21C455.85,774.92 457.05,775.24 464.50,776.92C473.77,779.00 489.73,781.04 497.93,781.18C502.36,781.26 504.29,782.26 503.80,784.23C503.66,784.79 503.51,789.44 503.47,794.56C503.42,799.68 503.20,804.18 502.96,804.56C502.60,805.14 486.83,805.26 401.39,805.29C345.76,805.32 289.79,805.43 277.00,805.54C264.21,805.66 248.91,805.64 243.00,805.50ZM1071.50,767.10C1063.86,766.47 1053.78,764.55 1047.70,762.58C1044.47,761.53 1037.53,758.20 1033.10,755.57C1031.65,754.71 1030.35,754.00 1030.21,754.00C1029.81,754.00 1023.38,748.98 1021.31,747.06C1015.49,741.62 1008.76,732.75 1004.02,724.25C1002.60,721.70 1000.15,715.36 998.96,711.12C998.71,710.23 998.26,708.66 997.96,707.62C996.84,703.74 996.05,695.47 996.02,687.46C996.00,679.75 996.17,677.87 997.56,670.50C999.04,662.68 1003.73,650.76 1007.31,645.75C1008.49,644.10 1010.39,641.17 1011.54,639.25C1015.68,632.32 1029.97,619.56 1037.25,616.29C1038.35,615.79 1041.05,614.49 1043.25,613.39C1045.45,612.30 1048.49,611.00 1050.00,610.51C1052.44,609.72 1054.00,609.29 1061.00,607.48C1061.96,607.23 1064.44,606.80 1066.50,606.51C1068.56,606.22 1071.75,605.73 1073.58,605.42C1080.62,604.23 1102.03,606.49 1109.50,609.22C1110.74,609.67 1113.74,610.71 1116.18,611.52C1118.61,612.34 1121.20,613.43 1121.93,613.94C1122.65,614.46 1124.38,615.50 1125.75,616.25C1130.21,618.68 1139.13,625.82 1144.30,631.10C1151.87,638.82 1154.53,643.11 1159.27,655.25C1161.93,662.05 1163.12,667.44 1164.45,678.75C1164.98,683.27 1164.54,692.50 1163.54,697.50C1163.29,698.74 1162.82,701.10 1162.48,702.75C1161.85,705.88 1159.10,714.88 1158.50,715.75C1158.32,716.02 1157.63,717.60 1156.98,719.25C1155.09,724.05 1153.38,726.73 1145.44,737.25C1143.25,740.15 1138.67,744.67 1133.90,748.65C1119.93,760.30 1101.18,766.72 1080.00,767.12C1076.29,767.19 1072.46,767.18 1071.50,767.10ZM873.22,762.56C872.71,762.04 873.04,755.16 873.60,754.60C873.93,754.27 875.54,754.00 877.23,754.00C880.34,754.00 885.61,753.05 888.25,752.02C892.26,750.45 894.78,747.18 895.52,742.63C895.94,740.02 896.24,719.80 896.73,661.50C896.81,651.46 897.03,638.28 897.21,632.20C897.49,622.77 897.43,621.06 896.79,620.54C896.24,620.08 893.73,619.99 886.90,620.18C872.88,620.57 864.32,621.99 861.21,624.44C857.85,627.08 851.66,638.04 849.96,644.34C849.38,646.49 848.55,648.53 848.11,648.88C847.19,649.60 842.10,649.71 841.03,649.03C840.41,648.63 840.47,646.83 841.51,635.66C842.17,628.56 842.83,619.22 842.98,614.91C843.22,607.98 843.37,606.91 844.30,605.66C845.11,604.58 845.83,604.21 847.42,604.10C849.23,603.96 849.97,604.28 853.29,606.60L857.09,609.25L869.42,609.44C885.01,609.69 891.69,609.71 921.00,609.62C934.06,609.58 945.54,609.58 946.50,609.61C949.98,609.75 964.81,608.92 967.19,608.46C968.53,608.20 970.29,607.42 971.11,606.74C972.57,605.50 977.55,603.00 978.54,603.00C978.82,603.00 979.68,603.33 980.46,603.73C982.05,604.55 981.97,603.74 983.01,628.75C983.27,635.08 983.63,641.74 983.80,643.56C984.21,647.91 983.75,648.66 980.23,649.50C975.99,650.52 975.91,650.44 973.48,642.50C972.60,639.61 971.54,636.16 971.12,634.82C970.20,631.90 967.04,627.05 964.90,625.24C960.20,621.29 955.04,620.20 939.37,619.84C929.57,619.61 928.45,619.67 928.06,620.42C927.29,621.90 926.97,634.46 926.65,675.50C926.07,749.07 925.87,743.28 929.16,747.59C932.28,751.69 938.10,754.00 945.28,754.00C946.95,754.00 948.66,754.28 949.10,754.62C950.09,755.41 950.68,761.82 949.82,762.38C949.22,762.77 873.61,762.94 873.22,762.56ZM1093.00,755.12C1096.28,754.50 1097.78,753.95 1101.75,751.91C1109.97,747.68 1116.27,741.23 1120.43,732.78C1127.23,718.97 1127.49,718.11 1129.12,704.50C1129.82,698.58 1129.94,677.58 1129.30,672.25C1129.07,670.33 1128.31,666.61 1127.62,664.00C1126.92,661.39 1126.20,658.35 1126.00,657.25C1125.40,653.81 1121.16,644.07 1117.89,638.63C1115.42,634.53 1113.61,632.30 1109.38,628.18C1104.68,623.59 1103.42,622.66 1099.37,620.77C1096.83,619.58 1092.76,618.00 1090.33,617.26C1086.46,616.08 1085.08,615.91 1079.00,615.91C1071.90,615.90 1071.90,615.90 1062.43,618.83C1059.16,619.84 1052.54,624.64 1047.25,629.83C1042.50,634.50 1040.25,638.06 1036.59,646.75C1034.23,652.35 1033.62,654.39 1032.23,661.43C1029.13,677.19 1029.51,693.03 1033.43,710.50C1036.54,724.35 1043.53,736.61 1052.91,744.66C1058.31,749.29 1062.08,752.00 1063.12,752.00C1063.50,752.00 1064.70,752.42 1065.78,752.94C1067.86,753.92 1069.94,754.61 1073.25,755.41C1075.75,756.02 1089.30,755.81 1093.00,755.12ZM496.50,533.76C510.39,533.49 523.02,532.74 529.00,531.83C531.61,531.43 535.89,530.84 538.50,530.51C541.11,530.18 544.71,529.47 546.50,528.94C552.25,527.23 552.71,527.10 555.50,526.50C558.09,525.94 566.07,523.42 568.25,522.48C568.80,522.24 570.42,521.71 571.84,521.31C575.97,520.14 588.92,513.45 592.69,510.55C594.10,509.46 596.39,508.01 597.78,507.31C599.17,506.62 600.74,505.55 601.28,504.95C601.81,504.35 603.92,502.61 605.97,501.09C612.26,496.41 621.74,486.37 626.35,479.50C633.59,468.71 636.51,463.42 640.00,454.75C644.15,444.43 644.87,441.91 646.61,431.75C648.05,423.30 648.45,418.74 648.80,406.73C649.10,396.44 649.02,394.84 647.23,376.75C645.70,361.23 643.17,351.09 637.01,335.75C633.90,327.99 631.47,323.73 624.80,314.32C621.91,310.24 614.44,301.42 611.26,298.33C601.19,288.56 590.74,281.76 575.86,275.29C561.86,269.22 537.73,263.24 522.25,262.02C501.06,260.34 492.18,259.99 484.00,260.50C466.10,261.62 461.13,261.99 458.25,262.43C440.09,265.21 434.90,266.98 429.77,272.17C426.17,275.81 423.84,280.00 422.50,285.24C421.10,290.73 420.58,305.56 420.26,349.50C420.11,369.99 419.84,402.61 419.67,422.00C419.49,441.39 419.36,457.93 419.39,458.75C419.41,459.57 419.57,475.66 419.74,494.50C419.91,513.34 420.15,529.23 420.27,529.81C420.39,530.40 421.11,531.11 421.87,531.40C423.56,532.04 430.45,532.66 437.50,532.82C440.39,532.88 448.60,533.18 455.75,533.47C470.36,534.08 480.77,534.32 483.75,534.11C484.85,534.04 490.59,533.88 496.50,533.76Z" fill="#000000" fill-rule="evenodd"/>
</svg>